<?xml version="1.0" encoding="utf-8"?>
<!-- Generator: Adobe Illustrator 26.0.0, SVG Export Plug-In . SVG Version: 6.00 Build 0)  -->
<svg version="1.1" id="Capa_1" xmlns="http://www.w3.org/2000/svg" xmlns:xlink="http://www.w3.org/1999/xlink" x="0px" y="0px"
	 viewBox="0 0 24 24" style="enable-background:new 0 0 24 24;" xml:space="preserve">
<style type="text/css">
	.st0{fill:#B6E3F7;}
	.st1{fill:#6EC7EF;}
	.st2{fill:#388CB2;}
	.st3{fill:#265D77;}
	.st4{fill:#132F3B;}
</style>
<g>
	<path class="st0" d="M12,24c-2.5,0-4.9,0-7.4,0c0-1,0-2,0-2.9c0-0.1,0-0.2,0-0.4c0-5.5,0-11,0-16.5C4.6,4,4.7,4,4.9,4
		c2.3,0,4.6,0,6.9,0c0.1,0,0.2,0,0.2,0c0,1.3,0,2.5,0,3.8l0,0c-0.3,0-0.5,0-0.8,0c0.3,0.7,0.6,1.3,0.8,1.9c0,0,0,0.1,0,0.1
		c0,1.4,0,2.8,0,4.2c-0.1,0-0.2,0-0.3,0c-1.5,0-3.1,0-4.6,0c-0.2,0-0.2,0-0.2,0.2c0,0.3,0,0.7,0,1c0,0.2,0.1,0.2,0.2,0.2
		c1.2,0,2.4,0,3.6,0c0.4,0,0.9,0,1.3,0c0,0.4,0,0.7,0,1.1c-0.1,0-0.2,0-0.3,0c-1.5,0-3.1,0-4.6,0c-0.2,0-0.3,0-0.3,0.2
		c0,0.3,0,0.6,0,0.9C6.9,17.9,7,18,7.1,18c1.5,0,3,0,4.6,0c0.1,0,0.2,0,0.3,0c0,0.4,0,0.7,0,1.1c-0.1,0-0.2,0-0.3,0
		c-1.5,0-3.1,0-4.6,0c-0.2,0-0.2,0-0.2,0.2c0,0.3,0,0.6,0,0.9c0,0.2,0.1,0.3,0.3,0.3c1.5,0,3,0,4.6,0c0.1,0,0.2,0,0.3,0
		C12,21.7,12,22.8,12,24z M6.8,10.1c0,0.4,0.1,0.9,0.5,1.3c0.5,0.6,1.2,0.9,2,0.9c0.7,0,1.3-0.2,1.8-0.7c0.1-0.1,0.2-0.2,0-0.3
		c-0.2-0.2-0.4-0.3-0.6-0.5c-0.1-0.1-0.2-0.1-0.4,0c-0.4,0.4-1,0.5-1.4,0.2c-0.4-0.3-0.6-0.9-0.4-1.4c0.2-0.5,0.6-0.7,1.1-0.6
		c0.3,0,0.5,0.2,0.7,0.4c0.1,0.1,0.2,0.1,0.3,0c0.2-0.2,0.4-0.4,0.6-0.6c0.1-0.1,0.1-0.2,0-0.3C10.6,7.9,10,7.7,9.3,7.7
		C7.8,7.7,6.8,8.7,6.8,10.1z"/>
	<path class="st1" d="M18.3,22.3c0,0.6,0,1.2,0,1.7c-2.1,0-4.2,0-6.3,0c0-1.2,0-2.3,0-3.5c0,0,0,0,0,0c1.3,0,2.6,0,3.9,0
		c0.1,0,0.2-0.1,0.1-0.2c0-0.3,0-0.7,0-1c0-0.2,0-0.2-0.2-0.2c-0.9,0-1.9,0-2.8,0c-0.4,0-0.7,0-1.1,0c0,0,0,0,0,0c0-0.4,0-0.7,0-1.1
		c0,0,0,0,0,0c0.2,0,0.3,0,0.5,0c1.1,0,2.2,0,3.3,0c0.1,0,0.2,0,0.2-0.1c0-0.4,0-0.7,0-1.1c0-0.1,0-0.1-0.1-0.1c-1.3,0-2.6,0-3.9,0
		c0,0,0,0,0,0c0-0.4,0-0.7,0-1.1l0,0c1.3,0,2.6,0,3.9,0c0.1,0,0.2,0,0.1-0.1c0-0.4,0-0.7,0-1.1c0-0.1,0-0.1-0.1-0.1
		c-1.3,0-2.6,0-3.9,0c0,0,0,0,0,0c0-1.4,0-2.8,0-4.2c0.3,0.7,0.6,1.5,0.9,2.2c0.1,0.1,0.1,0.2,0.3,0.2c0.4,0,0.7,0,1.1,0
		c0.2,0,0.2-0.1,0.3-0.2c0.6-1.4,1.1-2.7,1.7-4c0-0.1,0.1-0.1,0-0.2c-0.4,0-0.8,0-1.2,0c-0.2,0-0.2,0.1-0.3,0.2
		c-0.3,0.7-0.6,1.4-0.9,2.1c0,0.1,0,0.2-0.1,0.2C13.5,9.7,13.3,9,13,8.4c-0.2-0.6-0.2-0.6-0.9-0.6c0,0-0.1,0-0.1,0
		c0-1.3,0-2.5,0-3.8c0,0,0,0,0,0c1.3,0,2.5,0,3.8,0c0.1,0,0.2,0,0.3,0c0.7,0,1.5,0,2.2,0c0.1,0.7,0,1.5,0,2.2c0,5.2,0,10.5,0,15.7
		C18.3,22.1,18.3,22.2,18.3,22.3z"/>
	<path class="st2" d="M4.6,21.1c-0.9,0.1-1.7,0.1-2.6,0.2c-0.1,0-0.2,0-0.2-0.2c-0.1-0.8-0.1-1.6-0.2-2.4c-0.1-1.7-0.2-3.4-0.4-5.1
		C1.2,12.2,1.1,10.8,1,9.4C0.9,7.7,0.8,6,0.7,4.3c-0.1-1-0.1-2-0.2-3c0-0.2,0-0.2,0.2-0.2C2.8,0.9,4.9,0.7,7,0.6
		c1.7-0.1,3.3-0.2,5-0.4c0,1.2,0,2.5,0,3.7c0,0,0,0,0,0c-0.1,0-0.2,0-0.2,0C9.5,4,7.2,4,4.9,4C4.7,4,4.6,4,4.6,4.3
		c0,5.5,0,11,0,16.5C4.6,20.8,4.6,21,4.6,21.1z"/>
	<path class="st3" d="M6.8,10.1c0-1.5,1-2.5,2.5-2.4c0.7,0,1.3,0.2,1.8,0.7c0.1,0.1,0.1,0.2,0,0.3c-0.2,0.2-0.4,0.4-0.6,0.6
		c-0.1,0.1-0.2,0.1-0.3,0C10,9.1,9.7,8.9,9.4,8.9C8.9,8.9,8.5,9.1,8.3,9.5c-0.2,0.5,0,1.1,0.4,1.4c0.4,0.3,1,0.2,1.4-0.2
		c0.1-0.2,0.2-0.2,0.4,0c0.2,0.2,0.4,0.4,0.6,0.5c0.2,0.1,0.1,0.2,0,0.3c-0.5,0.5-1.1,0.7-1.8,0.7c-0.8,0-1.5-0.3-2-0.9
		C6.9,11,6.8,10.5,6.8,10.1z"/>
	<path class="st4" d="M12,7.8c0,0,0.1,0,0.1,0c0.6,0,0.6,0,0.9,0.6c0.3,0.6,0.5,1.3,0.8,1.9c0.1,0,0.1-0.1,0.1-0.2
		c0.3-0.7,0.6-1.4,0.9-2.1c0.1-0.1,0.1-0.2,0.3-0.2c0.4,0,0.8,0,1.2,0c0,0.1,0,0.1,0,0.2c-0.6,1.3-1.1,2.7-1.7,4
		c-0.1,0.1-0.1,0.2-0.3,0.2c-0.4,0-0.7,0-1.1,0c-0.1,0-0.2,0-0.3-0.2c-0.3-0.7-0.6-1.5-0.9-2.2c0,0,0-0.1,0-0.1
		C12,9.1,12,8.4,12,7.8L12,7.8z"/>
	<path class="st3" d="M12,15.5c-0.4,0-0.9,0-1.3,0c-1.2,0-2.4,0-3.6,0c-0.2,0-0.2,0-0.2-0.2c0-0.3,0-0.7,0-1c0-0.2,0.1-0.2,0.2-0.2
		c1.5,0,3.1,0,4.6,0c0.1,0,0.2,0,0.3,0c0,0,0,0,0,0C12,14.5,12,15,12,15.5C12,15.5,12,15.5,12,15.5z"/>
	<path class="st3" d="M12,18c-0.1,0-0.2,0-0.3,0c-1.5,0-3,0-4.6,0c-0.2,0-0.3,0-0.2-0.2c0-0.3,0-0.6,0-0.9c0-0.2,0.1-0.2,0.3-0.2
		c1.5,0,3.1,0,4.6,0c0.1,0,0.2,0,0.3,0c0,0,0,0,0,0C12,17,12,17.5,12,18C12,18,12,18,12,18z"/>
	<path class="st3" d="M12,20.5c-0.1,0-0.2,0-0.3,0c-1.5,0-3,0-4.6,0c-0.2,0-0.3,0-0.3-0.3c0-0.3,0-0.6,0-0.9c0-0.2,0.1-0.2,0.2-0.2
		c1.5,0,3.1,0,4.6,0c0.1,0,0.2,0,0.3,0c0,0,0,0,0,0C12,19.5,12,20,12,20.5C12,20.5,12,20.5,12,20.5z"/>
	<path class="st3" d="M12,7.8c0,0.6,0,1.3,0,1.9c-0.3-0.6-0.5-1.3-0.8-1.9C11.5,7.8,11.7,7.8,12,7.8z"/>
	<path class="st4" d="M18.3,22.3c0-0.1,0-0.2,0-0.3c0-5.2,0-10.5,0-15.7c0-0.7,0-1.5,0-2.2c-0.7,0-1.5,0-2.2,0c-0.1,0-0.2,0-0.3,0
		c0-0.1,0-0.2,0-0.3c-0.1-0.7-0.1-1.4-0.1-2.1c2.5,0.3,4.9,0.5,7.4,0.8c0.5,0.1,0.5,0.1,0.5,0.6c-0.3,2.4-0.5,4.8-0.8,7.2
		c-0.3,2.8-0.6,5.6-0.9,8.5c-0.1,1.2-0.3,2.5-0.4,3.7c0,0.2-0.1,0.3-0.3,0.2C20.2,22.5,19.3,22.4,18.3,22.3z"/>
	<path class="st3" d="M15.7,1.6c0,0.7,0.1,1.4,0.1,2.1c0,0.1,0,0.2,0,0.3c-1.3,0-2.5,0-3.8,0c0-1.2,0-2.5,0-3.7
		c1.1-0.1,2.2-0.2,3.2-0.2c0.2,0,0.3,0,0.3,0.2c0,0.4,0.1,0.8,0.1,1.2C15.6,1.5,15.6,1.6,15.7,1.6z"/>
	<path class="st4" d="M12,15.5c0-0.5,0-0.9,0-1.4c1.3,0,2.6,0,3.9,0c0.1,0,0.2,0,0.1,0.1c0,0.4,0,0.7,0,1.1c0,0.1,0,0.1-0.1,0.1
		C14.6,15.5,13.3,15.5,12,15.5z"/>
	<path class="st4" d="M12,18c0-0.5,0-0.9,0-1.4c1.3,0,2.6,0,3.9,0c0.1,0,0.2,0,0.1,0.1c0,0.4,0,0.7,0,1.1c0,0.2-0.1,0.1-0.2,0.1
		c-1.1,0-2.2,0-3.3,0C12.4,18,12.2,18,12,18z"/>
	<path class="st4" d="M12,20.5c0-0.5,0-0.9,0-1.4c0.4,0,0.7,0,1.1,0c0.9,0,1.9,0,2.8,0c0.2,0,0.2,0.1,0.2,0.2c0,0.3,0,0.7,0,1
		c0,0.1,0,0.2-0.1,0.2C14.6,20.5,13.3,20.5,12,20.5z"/>
</g>
</svg>
