<?xml version="1.0" encoding="utf-8"?>
<!-- Generator: Adobe Illustrator 26.0.0, SVG Export Plug-In . SVG Version: 6.00 Build 0)  -->
<svg version="1.1" id="Capa_1" xmlns="http://www.w3.org/2000/svg" xmlns:xlink="http://www.w3.org/1999/xlink" x="0px" y="0px"
	 viewBox="0 0 24 24" style="enable-background:new 0 0 24 24;" xml:space="preserve">
<style type="text/css">
	.st0{fill:#DCE9FA;}
	.st1{fill:#0774CE;}
	.st2{fill:#FEC244;}
	.st3{fill:#CAE1FE;}
	.st4{fill:#FC4755;}
	.st5{fill:#FED05B;}
	.st6{fill:#538FD7;}
	.st7{fill:#A174BE;}
	.st8{fill:#FD656F;}
	.st9{fill:#A274BE;}
	.st10{fill:#82AEE2;}
	.st11{fill:#FEF8DE;}
	.st12{fill:#FEEEAB;}
	.st13{fill:#FED260;}
</style>
<g>
	<path class="st0" d="M0,17.9c0-4.8,0-9.6,0-14.4c0.1,0,0.2,0,0.2,0c7.1,0,14.1,0,21.2,0c0.1,0,0.2,0,0.3,0c0.4,0,0.8,0,1.2,0l0,0
		c0,3.1,0,6.2,0,9.4c-0.3,0-0.6,0-0.9,0c-0.7,0-1.3,0-2,0c-0.8,0-1.2,0.3-1.4,0.9c-0.1,0.4-0.5,0.7-0.9,0.7c-1,0-1.9,0-2.9,0
		c0-0.8,0-1.5,0-2.3c0-0.3-0.1-0.4-0.4-0.4c-1.6,0-3.2,0-4.7,0c-0.3,0-0.4,0.1-0.4,0.4c0,0.8,0,1.5,0,2.3c0,0.7,0,1.4,0,2.1
		c0,0.3,0.1,0.4,0.5,0.5c0.7,0,1.4,0,2,0c0,0.5,0,0.9,0,1.4c-0.4,0-0.7,0-1.1,0c-1.2,0-2.4,0-3.6,0c0,0,0-0.1,0-0.1c0-1,0-2.1,0-3.1
		c0-0.2-0.1-0.3-0.4-0.3c-1.6,0-3.2,0-4.7,0c-0.3,0-0.4,0.1-0.4,0.4c0,0.3,0,0.7,0,1c0,0.7,0,1.4,0,2.1c-0.2,0-0.4,0-0.7,0
		C0.6,18.4,0.2,18.3,0,17.9z M9.3,7.7c0,0.7,0,1.4,0,2.1c0,0.3,0.1,0.4,0.4,0.4c0.5,0,1,0,1.5,0c1,0,2.1,0,3.1,0
		c0.3,0,0.4-0.1,0.4-0.4c0-0.7,0-1.5,0-2.2c0-0.8,0-1.6,0-2.3c0-0.2-0.1-0.3-0.3-0.3c-1.6,0-3.2,0-4.8,0c-0.2,0-0.3,0.1-0.3,0.3
		C9.3,6.2,9.3,6.9,9.3,7.7z M16.9,7.7c0,0.8-0.1,1.5,0,2.3c0,0.2,0.1,0.3,0.3,0.3c1.6,0,3.2,0,4.8,0c0.2,0,0.4-0.1,0.4-0.4
		c0-0.7,0-1.5,0-2.2c0-0.7,0-1.5,0-2.2c0-0.4-0.1-0.5-0.5-0.5c-1.5,0-3,0-4.6,0c-0.4,0-0.5,0.1-0.5,0.5C16.9,6.3,16.9,7,16.9,7.7z
		 M1.6,10.9c0,0.7,0,1.4,0,2.1c0,0.4,0.1,0.5,0.5,0.5c1.5,0,3,0,4.6,0c0.4,0,0.5-0.1,0.5-0.5c0-0.7,0-1.4,0-2.1c0-1.8,0-3.6,0-5.3
		c0-0.4-0.1-0.5-0.5-0.5c-1.5,0-3.1,0-4.6,0c-0.3,0-0.4,0.1-0.4,0.4C1.6,7.3,1.6,9.1,1.6,10.9z"/>
	<path class="st1" d="M21.7,3.4c-0.1,0-0.2,0-0.3,0c-7.1,0-14.1,0-21.2,0c-0.1,0-0.2,0-0.2,0C0,3,0,2.5,0,2.1
		c0.2-0.4,0.5-0.5,0.9-0.5c6.8,0,13.7,0,20.5,0c0.1,0,0.2,0,0.3,0C21.7,2.2,21.7,2.8,21.7,3.4z"/>
	<path class="st2" d="M24,21.6c-0.1,0.1-0.1,0.3-0.3,0.4c-0.2,0.3-0.5,0.4-0.9,0.4c-0.3,0-0.6,0-1,0c0,0,0-0.1,0-0.1
		c0.3-0.2,0.4-0.5,0.4-0.9c0-2.3,0-4.5,0-6.8c0.2,0,0.4-0.2,0.4-0.4c0-0.2-0.1-0.3-0.4-0.4c0-0.4,0-0.8-0.4-1c0,0,0,0,0-0.1
		c0.3,0,0.6,0,0.9,0c0.6,0,0.9,0.3,1.1,0.8C24,16.3,24,19,24,21.6z"/>
	<path class="st3" d="M24,13.7c-0.2-0.5-0.6-0.8-1.1-0.8c0-3.1,0-6.2,0-9.4c0.4,0,0.8,0,1.1,0C24,6.9,24,10.3,24,13.7z"/>
	<path class="st4" d="M24,3.5c-0.4,0-0.8,0-1.1,0c0,0,0,0,0,0c0-0.4,0-0.7,0-1.1c0-0.2-0.1-0.5-0.3-0.6c-0.1-0.1-0.2-0.1-0.2-0.2
		c0.3,0,0.6,0,0.9,0c0.4,0,0.6,0.2,0.7,0.5C24,2.5,24,3,24,3.5z"/>
	<path class="st5" d="M22.4,14.7c0,2.3,0,4.5,0,6.8c0,0.4-0.1,0.7-0.4,0.9c0,0,0,0,0,0.1c-0.2,0-0.4,0-0.5,0c-2.8,0-5.5,0-8.3,0
		c-0.8,0-1.3-0.6-1.3-1.3c0-0.9,0-1.8,0-2.8c0-0.5,0-0.9,0-1.4c0-0.2,0-0.5,0-0.7c0-0.1-0.1-0.2-0.2-0.2c-0.2,0-0.5,0-0.7,0
		c-0.3,0-0.4-0.1-0.4-0.4c0-0.2,0.2-0.3,0.4-0.3c0.2,0,0.5,0,0.7,0c0.1,0,0.2,0,0.2-0.1c0.1-0.4,0.4-0.6,0.7-0.8c0.1,0,0.1,0,0.2,0
		c0.7,0,1.4,0,2.1,0c1,0,1.9,0,2.9,0c0.5,0,0.8-0.3,0.9-0.7c0.2-0.6,0.6-0.9,1.4-0.9c0.7,0,1.3,0,2,0c0,0,0,0.1,0,0.1
		c0.4,0.2,0.4,0.6,0.4,1c-0.5,0-0.9,0-1.4,0c-0.3,0-0.6,0-1,0c-0.2,0-0.4,0.2-0.4,0.3c0,0.2,0.1,0.3,0.3,0.4c0.1,0,0.1,0,0.2,0
		C20.9,14.7,21.6,14.7,22.4,14.7z M16.7,19.4c-1,0-2.1,0-3.1,0c-0.2,0-0.3,0.1-0.3,0.3c0,0.2,0,0.4,0,0.6c0,0.6,0,0.6,0.6,0.6
		c0.9,0,1.9,0,2.8,0c0.3,0,0.7,0,1,0c0.2,0,0.3-0.1,0.3-0.3c0-0.3,0-0.7,0-1c0-0.2-0.1-0.2-0.2-0.2C17.4,19.4,17.1,19.4,16.7,19.4z"
		/>
	<path class="st6" d="M1.6,10.9c0-1.8,0-3.6,0-5.4c0-0.3,0.1-0.4,0.4-0.4c1.5,0,3.1,0,4.6,0c0.4,0,0.5,0.1,0.5,0.5
		c0,1.8,0,3.6,0,5.3c-0.1,0-0.2,0-0.3,0c-1.4,0-2.7,0-4.1,0C2.4,10.9,2,10.9,1.6,10.9z"/>
	<path class="st7" d="M7.1,18.4c-1.8,0-3.6,0-5.5,0c0-0.7,0-1.4,0-2.1c0-0.3,0-0.7,0-1c0-0.3,0.1-0.4,0.4-0.4c1.6,0,3.2,0,4.7,0
		c0.2,0,0.4,0.1,0.4,0.3C7.1,16.2,7.1,17.2,7.1,18.4C7.1,18.3,7.1,18.3,7.1,18.4z"/>
	<path class="st8" d="M16.9,7.7c0-0.7,0-1.4,0-2.1c0-0.4,0.1-0.5,0.5-0.5c1.5,0,3,0,4.6,0c0.4,0,0.5,0.1,0.5,0.5c0,0.7,0,1.5,0,2.2
		c0,0-0.1,0-0.1,0c-1.7,0-3.4,0-5.1,0C17,7.7,17,7.7,16.9,7.7z"/>
	<path class="st9" d="M9.3,7.7c0-0.8,0-1.6,0-2.3c0-0.2,0.1-0.3,0.3-0.3c1.6,0,3.2,0,4.8,0c0.2,0,0.3,0.1,0.3,0.3c0,0.8,0,1.6,0,2.3
		c-0.9,0-1.7,0-2.6,0C11.2,7.7,10.3,7.7,9.3,7.7z"/>
	<path class="st10" d="M14.8,14.4c-0.7,0-1.4,0-2.1,0c-0.1,0-0.1,0-0.2,0c-1.1,0-2.2,0-3.2,0c0-0.8,0-1.5,0-2.3
		c0-0.3,0.1-0.4,0.4-0.4c1.6,0,3.2,0,4.7,0c0.3,0,0.4,0.1,0.4,0.4C14.8,12.9,14.8,13.7,14.8,14.4z"/>
	<path class="st11" d="M1.6,10.9c0.4,0,0.7,0,1.1,0c1.4,0,2.7,0,4.1,0c0.1,0,0.2,0,0.3,0c0,0.7,0,1.4,0,2.1c0,0.4-0.1,0.5-0.5,0.5
		c-1.5,0-3,0-4.6,0c-0.4,0-0.5-0.1-0.5-0.5C1.6,12.2,1.6,11.5,1.6,10.9z M4.4,12.5c0.4,0,0.8,0,1.1,0c0.3,0,0.4-0.1,0.4-0.4
		c0-0.2-0.1-0.4-0.4-0.4c-0.8,0-1.5,0-2.3,0c-0.3,0-0.4,0.1-0.4,0.4c0,0.2,0.2,0.4,0.4,0.4C3.7,12.5,4,12.5,4.4,12.5z"/>
	<path class="st11" d="M16.9,7.7c0.1,0,0.1,0,0.2,0c1.7,0,3.4,0,5.1,0c0,0,0.1,0,0.1,0c0,0.7,0,1.5,0,2.2c0,0.2-0.1,0.4-0.4,0.4
		c-1.6,0-3.2,0-4.8,0c-0.2,0-0.3-0.1-0.3-0.3C16.8,9.2,16.9,8.4,16.9,7.7z M19.7,8.6c-0.4,0-0.8,0-1.1,0c-0.3,0-0.4,0.1-0.5,0.4
		c0,0.2,0.1,0.4,0.5,0.4c0.8,0,1.5,0,2.3,0c0.2,0,0.4-0.2,0.4-0.4c0-0.2-0.2-0.4-0.4-0.4C20.5,8.6,20.1,8.6,19.7,8.6z"/>
	<path class="st11" d="M9.3,7.7c1,0,1.9,0,2.9,0c0.9,0,1.7,0,2.6,0c0,0.7,0,1.5,0,2.2c0,0.2-0.1,0.4-0.4,0.4c-1,0-2.1,0-3.1,0
		c-0.5,0-1,0-1.5,0c-0.3,0-0.4-0.1-0.4-0.4C9.3,9.1,9.3,8.4,9.3,7.7z M12,9.4c0.4,0,0.8,0,1.1,0c0.3,0,0.5-0.1,0.5-0.4
		c0-0.2-0.2-0.4-0.5-0.4c-0.8,0-1.5,0-2.3,0c-0.3,0-0.4,0.1-0.5,0.4c0,0.2,0.2,0.4,0.5,0.4C11.3,9.4,11.7,9.4,12,9.4z"/>
	<path class="st11" d="M9.3,14.4c1.1,0,2.2,0,3.2,0c0,0,0,0,0,0c-0.3,0.2-0.6,0.4-0.7,0.8c0,0.1-0.1,0.1-0.2,0.1c-0.2,0-0.5,0-0.7,0
		c-0.3,0-0.4,0.1-0.4,0.3c0,0.2,0.2,0.4,0.4,0.4c0.2,0,0.5,0,0.7,0c0.1,0,0.2,0,0.2,0.2c0,0.2,0,0.5,0,0.7c-0.7,0-1.4,0-2,0
		c-0.3,0-0.5-0.1-0.5-0.5C9.3,15.9,9.3,15.1,9.3,14.4z"/>
	<path class="st8" d="M22.4,1.6c0,0.1,0.1,0.1,0.2,0.2c0.2,0.2,0.3,0.4,0.3,0.6c0,0.4,0,0.7,0,1.1c-0.4,0-0.8,0-1.2,0
		c0-0.6,0-1.2,0-1.8C21.9,1.5,22.2,1.6,22.4,1.6z"/>
	<path class="st6" d="M22.4,14.7c-0.7,0-1.4,0-2.2,0c-0.1,0-0.1,0-0.2,0c-0.2,0-0.4-0.2-0.3-0.4c0-0.2,0.2-0.3,0.4-0.3
		c0.3,0,0.6,0,1,0c0.5,0,0.9,0,1.4,0c0.2,0,0.3,0.2,0.4,0.4C22.7,14.6,22.6,14.7,22.4,14.7z"/>
	<path class="st11" d="M16.7,20.9c-0.9,0-1.9,0-2.8,0c-0.6,0-0.6,0-0.6-0.6c0-0.2,0-0.4,0-0.6c0-0.2,0.1-0.3,0.3-0.3
		c1,0,2.1,0,3.1,0C16.9,19.9,16.9,20.4,16.7,20.9z"/>
	<path class="st12" d="M16.7,20.9c0.2-0.5,0.2-1,0-1.5c0.3,0,0.7,0,1,0c0.2,0,0.2,0.1,0.2,0.2c0,0.3,0,0.7,0,1
		c0,0.2-0.1,0.3-0.3,0.3C17.4,21,17.1,20.9,16.7,20.9z"/>
	<path class="st0" d="M12.5,14.5C12.5,14.5,12.5,14.5,12.5,14.5c0.1,0,0.1,0,0.2,0C12.6,14.5,12.6,14.5,12.5,14.5z"/>
	<path class="st5" d="M4.4,12.5c-0.4,0-0.8,0-1.2,0c-0.3,0-0.4-0.1-0.4-0.4c0-0.2,0.2-0.3,0.4-0.4c0.8,0,1.5,0,2.3,0
		c0.3,0,0.4,0.1,0.4,0.4c0,0.2-0.1,0.4-0.4,0.4C5.2,12.5,4.8,12.5,4.4,12.5z"/>
	<path class="st13" d="M19.7,8.6c0.4,0,0.8,0,1.1,0c0.3,0,0.4,0.1,0.4,0.4c0,0.2-0.2,0.4-0.4,0.4c-0.8,0-1.5,0-2.3,0
		c-0.3,0-0.5-0.1-0.5-0.4c0-0.2,0.2-0.4,0.5-0.4C18.9,8.6,19.3,8.6,19.7,8.6z"/>
	<path class="st13" d="M12,9.4c-0.4,0-0.7,0-1.1,0c-0.3,0-0.5-0.1-0.5-0.4c0-0.2,0.2-0.4,0.5-0.4c0.8,0,1.5,0,2.3,0
		c0.3,0,0.5,0.1,0.5,0.4c0,0.2-0.2,0.4-0.5,0.4C12.8,9.4,12.4,9.4,12,9.4z"/>
</g>
</svg>
